{"glyphs":{"0":{"ha":679,"x_min":-33,"x_max":635,"o":"m -8 317 q 61 427 18 383 q 167 499 104 471 q 285 535 229 526 q 388 544 340 544 q 488 535 436 546 q 575 499 539 525 q 623 428 611 472 q 606 317 635 383 q 429 138 558 194 q 313 101 367 110 q 210 89 258 92 q 163 93 182 90 q 117 100 143 96 q 24 138 63 111 q -24 210 -15 165 q -8 317 -33 254 m 260 235 q 342 257 304 240 q 403 322 379 274 q 399 388 418 368 q 339 408 379 407 q 254 388 288 407 q 199 319 221 368 q 194 282 192 297 q 207 257 197 267 q 231 242 217 247 q 260 235 244 236 z "},"1":{"ha":293,"x_min":-90,"x_max":271,"o":"m 93 544 l 35 544 l -10 431 l 47 431 l 1 317 l -90 89 l 88 89 l 271 544 l 93 544 z "},"2":{"ha":535,"x_min":-78,"x_max":522,"o":"m -67 163 q -72 146 -68 158 q -77 121 -76 133 q -72 99 -78 108 q -50 89 -67 89 l 351 89 l 397 199 l 153 199 q 356 265 313 243 q 439 319 403 290 q 492 391 476 350 q 518 461 507 432 q 518 489 522 471 q 497 522 514 507 q 447 540 481 538 q 369 543 414 543 l 104 544 l 46 401 l 331 401 q 143 318 190 332 q 54 282 99 307 q -20 228 13 260 q -67 163 -53 197 z "},"3":{"ha":563,"x_min":-78,"x_max":531,"o":"m 444 242 q 418 329 453 294 q 506 400 474 356 q 521 494 531 478 q 482 526 513 513 q 417 544 461 540 l 150 544 q 108 526 129 539 q 68 497 86 513 l 44 436 l 238 438 l 261 438 q 307 428 292 438 q 314 399 322 419 q 231 354 300 361 l 204 354 l 44 353 l 19 289 l 179 290 l 204 290 q 253 247 267 286 q 222 217 244 226 q 168 207 199 207 l 146 207 l -36 208 l -76 138 q -76 125 -78 133 q -64 106 -74 117 q -47 92 -54 96 q -36 89 -39 89 l 233 89 q 293 97 264 89 q 346 115 322 104 q 386 139 369 126 q 410 163 403 151 q 424 192 415 172 q 444 242 432 211 z "},"4":{"ha":621,"x_min":-28,"x_max":599,"o":"m 92 544 l -28 247 l 158 247 l 292 247 l 229 89 l 415 89 l 599 544 l 413 544 l 353 396 l 219 396 l 279 544 l 92 544 z "},"5":{"ha":496,"x_min":-78,"x_max":483,"o":"m -36 226 l -75 129 q -76 117 -78 122 q -66 106 -75 111 q -37 96 -57 100 q 15 88 -18 92 l 92 88 q 274 130 201 88 q 372 239 346 172 q 380 283 381 264 q 371 317 379 303 q 348 342 363 332 q 317 361 333 353 q 284 376 299 369 q 254 386 269 382 q 229 408 225 394 l 236 436 l 306 436 l 428 436 l 483 547 l 325 547 l 75 547 l 35 406 q 26 349 21 372 q 46 310 31 326 q 83 284 61 294 q 122 265 104 274 q 152 249 140 257 q 160 229 164 240 q 135 208 153 213 q 96 204 118 204 q 61 208 76 204 q 31 215 46 211 q -1 223 15 219 q -36 226 -17 226 z "},"6":{"ha":579,"x_min":-33,"x_max":578,"o":"m 82 464 l 88 471 q 110 494 93 481 q 151 518 128 507 q 204 537 175 529 q 264 544 233 544 l 533 544 q 544 541 536 544 q 561 528 551 538 q 572 493 578 507 l 538 438 l 339 439 l 315 439 l 308 436 q 269 428 283 435 q 244 397 256 422 q 282 346 239 360 l 308 346 q 406 333 371 340 q 456 310 442 325 q 469 270 471 294 q 458 207 468 246 l 429 136 q 390 108 411 121 q 347 89 368 94 l 81 89 q 15 107 39 93 q -24 139 -15 121 q -8 233 -33 156 l 82 464 m 253 199 q 292 206 278 200 q 317 233 306 211 q 279 279 322 267 l 253 279 q 169 235 185 274 q 176 205 161 214 q 222 196 192 196 l 246 196 l 253 199 z "},"7":{"ha":415,"x_min":-10,"x_max":383,"o":"m 213 89 l 379 503 q 368 531 383 518 q 336 544 353 544 l 36 544 l -10 432 l 154 432 l 17 89 l 213 89 z "},"8":{"ha":568,"x_min":-81,"x_max":531,"o":"m 444 242 q 424 192 432 211 q 410 163 415 172 q 386 139 403 151 q 346 115 369 126 q 293 97 322 104 q 233 89 264 89 l -36 89 q -47 92 -39 89 q -64 106 -54 96 q -75 140 -81 126 l -31 239 q 81 340 4 306 q 39 426 32 374 l 68 497 q 108 526 86 513 q 150 544 129 539 l 417 544 q 482 526 458 540 q 521 494 513 513 q 506 400 531 478 q 418 329 474 356 q 444 242 453 294 m 231 435 q 192 428 206 433 q 167 400 178 422 q 204 354 160 367 l 231 354 q 314 399 299 360 q 307 428 322 419 q 261 438 292 438 l 238 438 l 231 435 m 189 197 q 228 205 214 199 q 253 236 242 211 q 215 288 258 274 l 189 288 q 106 238 119 281 q 113 204 97 214 q 158 194 128 194 l 182 194 l 189 197 z "},"9":{"ha":568,"x_min":-81,"x_max":531,"o":"m 415 169 l 410 163 q 386 139 403 151 q 346 115 369 126 q 293 97 322 104 q 233 89 264 89 l -36 89 q -47 92 -39 89 q -64 106 -54 96 q -75 140 -81 126 l -40 196 l 158 194 l 182 194 l 189 197 q 228 205 214 199 q 253 236 242 211 q 215 288 258 274 l 189 288 q 90 301 125 293 q 41 324 56 310 q 28 363 26 339 q 39 426 29 388 l 68 497 q 108 526 86 513 q 150 544 129 539 l 417 544 q 482 526 458 540 q 521 494 513 513 q 506 400 531 478 l 415 169 m 231 435 q 192 428 206 433 q 167 400 178 422 q 204 354 160 367 l 231 354 q 314 399 299 360 q 307 428 322 419 q 261 438 292 438 l 238 438 l 231 435 z "}," ":{"ha":436,"x_min":0,"x_max":0,"o":""}," ":{"ha":436,"x_min":0,"x_max":0,"o":""},"!":{"ha":315,"x_min":-68,"x_max":294,"o":"m 294 544 l 111 544 l 24 307 l 201 307 l 294 544 m 165 235 l -12 235 l -68 89 l 110 89 l 165 235 z "},"\"":{"ha":549,"x_min":35,"x_max":525,"o":"m 525 544 l 342 544 l 282 388 l 371 388 l 369 254 l 525 544 m 278 544 l 94 544 l 35 388 l 124 388 l 122 254 l 278 544 z "},"$":{"ha":496,"x_min":-82,"x_max":474,"o":"m -36 226 l -75 129 q -65 106 -82 114 q -37 96 -58 100 q -6 91 -28 93 q 50 86 15 89 l 6 -3 l 89 -3 l 139 86 q 274 129 201 89 q 372 239 344 172 q 380 283 381 264 q 371 317 379 303 q 348 342 363 332 q 317 361 333 353 q 284 376 299 369 q 254 386 269 382 q 229 408 225 394 q 261 431 238 425 q 306 436 285 436 q 338 430 322 435 q 367 421 353 425 q 395 414 381 417 q 426 413 410 411 l 469 518 q 453 534 474 528 q 406 543 433 540 q 355 547 379 546 q 326 547 331 547 l 367 625 l 283 625 l 244 547 q 142 511 222 547 q 35 406 64 475 q 26 349 21 372 q 46 310 31 326 q 83 284 61 294 q 122 265 104 274 q 152 249 140 257 q 160 229 164 240 q 135 208 153 213 q 96 204 118 204 q 61 208 76 204 q 31 215 46 211 q -1 223 15 219 q -36 226 -17 226 z "},"%":{"ha":626,"x_min":-86,"x_max":604,"o":"m 400 531 l -86 89 l 101 89 l 604 544 l 418 544 l 400 531 m 258 542 l 75 542 l 15 378 l 193 378 l 258 542 m 564 292 l 381 292 l 321 128 l 499 128 l 564 292 z "},"&":{"ha":563,"x_min":-78,"x_max":531,"o":"m 8 392 q 29 442 21 422 q 43 471 38 461 q 67 494 50 481 q 107 518 83 507 q 160 537 131 529 q 219 544 189 544 l 489 544 q 499 541 492 544 q 517 528 507 538 q 528 508 526 517 q 529 496 531 500 l 489 425 l 307 426 l 285 426 q 231 417 254 426 q 200 386 208 407 q 249 343 186 347 l 274 343 l 433 344 l 408 281 l 249 279 l 222 279 q 139 235 154 274 q 146 205 131 214 q 192 196 161 196 l 215 196 l 408 197 l 385 136 q 345 108 367 121 q 303 89 324 94 l 36 89 q -29 107 -10 93 q -68 139 -60 121 q -53 233 -78 156 q 35 304 -22 276 q 8 392 0 339 z "},"'":{"ha":304,"x_min":35,"x_max":278,"o":"m 278 544 l 94 544 l 35 388 l 124 388 l 122 254 l 278 544 z "},"(":{"ha":429,"x_min":-57,"x_max":397,"o":"m -8 315 q 25 107 -57 171 q 269 42 107 42 l 303 197 q 261 208 286 203 q 219 229 236 214 q 197 266 204 246 q 200 315 189 286 q 281 425 225 403 q 353 447 333 447 l 397 592 q 340 591 369 593 q 278 585 310 589 q 150 544 211 581 q 52 451 86 506 q -8 315 18 396 z "},")":{"ha":424,"x_min":-56,"x_max":397,"o":"m 350 319 q 317 528 397 463 q 72 593 235 593 l 39 438 q 81 426 56 432 q 121 404 106 421 q 145 369 138 389 q 142 319 153 349 q 61 210 117 232 q -11 188 8 188 l -56 43 q 2 44 -28 42 q 64 50 32 46 q 192 90 131 54 q 290 184 256 129 q 350 319 324 239 z "},"*":{"ha":315,"x_min":-68,"x_max":281,"o":"m 281 536 l 97 536 l 38 372 l 215 372 l 281 536 m 175 253 l -8 253 l -68 89 l 110 89 l 175 253 z "},"+":{"ha":361,"x_min":-22,"x_max":289,"o":"m 289 381 l 228 381 l 272 464 l 122 464 l 83 381 l 33 381 l -22 258 l 22 258 l -17 181 l 133 181 l 178 258 l 222 258 l 289 381 z "},",":{"ha":338,"x_min":-68,"x_max":175,"o":"m 175 253 l -8 253 l -68 89 l 21 89 l 25 -97 l 175 253 z "},"-":{"ha":344,"x_min":-25,"x_max":247,"o":"m 247 382 l 181 254 l -25 254 l 29 382 l 247 382 z "},".":{"ha":344,"x_min":-68,"x_max":175,"o":"m 175 253 l -8 253 l -68 89 l 110 89 l 175 253 z "},"/":{"ha":626,"x_min":-86,"x_max":604,"o":"m 400 531 l 418 544 l 604 544 l 101 89 l -86 89 l 400 531 z "},":":{"ha":315,"x_min":-68,"x_max":281,"o":"m 281 536 l 97 536 l 38 372 l 215 372 l 281 536 m 175 253 l -8 253 l -68 89 l 110 89 l 175 253 z "},";":{"ha":310,"x_min":-68,"x_max":281,"o":"m 281 536 l 97 536 l 38 372 l 215 372 l 281 536 m 175 253 l -8 253 l -68 89 l 21 89 l 25 -97 l 175 253 z "},"<":{"ha":460,"x_min":-6,"x_max":438,"o":"m -6 343 l 64 89 l 260 89 l 172 317 l 438 544 l 242 544 l -6 343 z "},"=":{"ha":351,"x_min":-68,"x_max":307,"o":"m 307 500 l 240 372 l 186 372 l 35 372 l 89 500 l 240 500 l 307 500 m 204 261 l 138 133 l 83 133 l -68 133 l -14 261 l 138 261 l 204 261 z "},">":{"ha":439,"x_min":-83,"x_max":360,"o":"m 360 289 l 290 543 l 94 543 l 182 315 l -83 88 l 113 88 l 360 289 z "},"?":{"ha":540,"x_min":-68,"x_max":525,"o":"m 90 310 l 346 310 q 397 340 356 311 q 438 371 419 356 q 474 401 457 386 q 502 432 492 417 q 518 461 513 447 q 524 485 522 471 q 521 512 525 499 q 506 535 517 525 q 475 544 496 544 l 104 544 l 46 401 l 225 401 q 185 374 206 388 q 140 346 164 360 q 90 310 96 318 m 175 253 l -8 253 l -68 89 l 110 89 l 175 253 z "},"@":{"ha":1433,"x_min":0,"x_max":1389,"o":"m 936 253 l 829 253 l 879 322 l 879 321 q 885 332 883 328 q 893 342 888 336 q 908 359 899 349 q 933 389 917 369 l 957 389 l 957 367 q 957 360 957 367 q 957 344 957 354 q 956 326 957 336 q 954 311 956 317 l 936 253 m 931 110 l 1097 110 l 1097 493 q 1071 526 1097 511 l 1072 526 q 1038 535 1057 533 q 999 536 1018 536 q 905 511 944 536 q 842 454 865 486 l 576 110 l 731 110 l 782 167 l 921 167 l 931 110 m 1389 531 q 1185 40 1389 240 q 694 -164 985 -164 q 203 40 404 -164 q 0 531 0 240 q 203 1021 0 821 q 694 1225 404 1225 q 1185 1021 985 1225 q 1389 531 1389 821 m 800 156 l 786 156 l 736 99 l 556 99 l 833 461 q 899 520 858 493 q 999 547 940 547 q 1038 546 1018 547 q 1076 536 1058 544 q 1108 490 1110 517 l 1108 99 l 921 99 l 911 156 l 881 156 l 800 156 m 943 315 q 947 333 944 322 q 951 354 949 344 q 955 371 953 364 q 957 378 957 378 l 938 378 q 927 366 936 376 q 906 340 918 356 q 889 315 894 325 l 851 264 l 928 264 l 943 315 m 1378 531 q 1176 1013 1378 815 q 694 1214 979 1214 q 211 1013 411 1214 q 11 531 11 814 q 211 47 11 247 q 694 -153 411 -153 q 1176 47 978 -153 q 1378 531 1378 247 z "},"A":{"ha":1457,"x_min":0,"x_max":1389,"o":"m 1389 528 q 1185 38 1389 239 q 694 -167 982 -167 q 203 38 407 -167 q 0 528 0 240 q 203 1018 0 815 q 694 1222 407 1222 q 1185 1018 982 1222 q 1389 528 1389 815 m 932 257 l 854 257 l 892 310 q 910 335 897 319 q 931 360 922 350 q 942 372 940 371 l 961 372 q 959 365 961 372 q 955 349 957 358 q 951 328 953 339 q 947 310 949 317 l 932 257 m 883 147 l 915 147 l 925 89 l 1115 89 l 1115 488 q 1082 533 1117 514 q 1044 543 1064 542 q 1004 544 1024 544 q 903 517 946 544 q 836 457 861 490 l 553 89 l 736 89 l 788 147 l 801 147 l 883 147 z "},"B":{"ha":1457,"x_min":0,"x_max":1389,"o":"m 1389 528 q 1185 1018 1389 815 q 694 1222 982 1222 q 203 1018 407 1222 q 0 528 0 815 q 203 38 0 240 q 694 -167 407 -167 q 1185 38 982 -167 q 1389 528 1389 239 m 1165 242 q 1144 192 1153 211 q 1131 163 1136 172 q 1096 131 1121 146 q 1033 102 1071 115 q 954 89 994 89 l 685 89 q 674 92 682 89 q 657 106 667 96 q 645 125 647 117 q 644 138 643 133 l 789 497 q 828 526 807 513 q 871 544 850 539 l 1138 544 q 1203 526 1175 540 q 1243 497 1232 513 q 1226 400 1254 482 q 1139 329 1194 356 q 1165 242 1174 294 m 896 288 l 867 207 l 889 207 q 942 217 919 207 q 974 247 965 226 q 925 290 988 286 l 900 290 l 896 288 m 954 435 l 925 354 l 951 354 q 1035 399 1019 360 q 1028 428 1043 419 q 982 438 1013 438 l 958 438 l 954 435 z "},"C":{"ha":1457,"x_min":8,"x_max":1397,"o":"m 1397 522 q 1193 1013 1397 810 q 703 1217 990 1217 q 211 1013 415 1217 q 8 522 8 810 q 211 32 8 235 q 703 -172 415 -172 q 1193 32 990 -172 q 1397 522 1397 233 m 800 315 q 860 428 826 382 q 958 506 894 475 q 1086 540 1021 536 q 1281 544 1151 547 l 1225 407 q 1087 389 1144 410 q 1008 315 1029 368 q 1005 273 997 289 q 1033 248 1013 257 q 1085 235 1054 239 q 1154 228 1117 231 l 1097 89 q 833 140 914 86 q 800 315 753 194 z "},"D":{"ha":1457,"x_min":0,"x_max":1389,"o":"m 1389 528 q 1185 1018 1389 815 q 694 1222 982 1222 q 203 1018 407 1222 q 0 528 0 815 q 203 38 0 240 q 694 -167 407 -167 q 1185 38 982 -167 q 1389 528 1389 239 m 1186 315 q 1010 139 1138 196 q 945 115 979 125 q 871 99 911 106 q 767 90 833 92 q 608 89 701 88 l 792 544 l 896 544 q 1048 533 982 544 q 1153 495 1114 522 q 1203 424 1193 468 q 1186 315 1213 381 m 904 396 l 842 233 q 923 257 885 239 q 978 315 961 275 q 978 382 999 367 q 908 401 957 399 l 904 396 z "},"E":{"ha":1457,"x_min":0,"x_max":1389,"o":"m 1389 528 q 1185 38 1389 239 q 694 -167 982 -167 q 203 38 407 -167 q 0 528 0 240 q 203 1018 0 815 q 694 1222 407 1222 q 1185 1018 982 1222 q 1389 528 1389 815 m 907 506 l 753 128 q 752 116 749 122 q 763 103 756 110 q 778 93 769 97 q 796 89 788 89 l 1101 89 l 1147 203 l 981 203 l 1000 253 l 1151 253 l 1206 381 l 1054 381 l 1075 431 l 1242 431 l 1289 544 l 983 544 q 944 529 963 538 q 907 506 926 521 z "},"F":{"ha":1457,"x_min":0,"x_max":1389,"o":"m 1389 528 q 1185 1018 1389 815 q 694 1222 982 1222 q 203 1018 407 1222 q 0 528 0 815 q 203 38 0 240 q 694 -167 407 -167 q 1185 38 982 -167 q 1389 528 1389 239 m 906 506 q 942 529 925 521 q 981 544 960 538 l 1283 544 l 1236 431 l 1072 431 l 1051 381 l 1201 381 l 1149 253 l 997 253 l 978 203 l 931 89 l 739 89 l 753 128 l 906 506 z "},"G":{"ha":1457,"x_min":0,"x_max":1389,"o":"m 1389 528 q 1185 1018 1389 815 q 694 1222 982 1222 q 203 1018 407 1222 q 0 528 0 815 q 203 38 0 240 q 694 -167 407 -167 q 1185 38 982 -167 q 1389 528 1389 239 m 975 235 l 1006 315 l 1172 315 l 1082 88 l 979 88 q 830 99 894 88 q 726 137 765 110 q 678 208 688 164 q 696 317 669 251 q 868 493 744 438 q 931 517 897 507 q 1004 533 965 526 q 1106 542 1040 540 q 1263 543 1171 544 l 1213 415 q 1033 399 1131 413 q 953 375 990 393 q 899 317 915 357 q 899 250 879 264 q 967 231 919 233 l 975 235 z "},"H":{"ha":1457,"x_min":0,"x_max":1389,"o":"m 1389 528 q 1185 1018 1389 815 q 694 1222 982 1222 q 203 1018 407 1222 q 0 528 0 815 q 203 38 0 240 q 694 -167 407 -167 q 1185 38 982 -167 q 1389 528 1389 239 m 781 544 l 968 544 l 908 396 l 1042 396 l 1101 544 l 1288 544 l 1104 89 l 918 89 l 981 247 l 847 247 l 785 89 l 597 89 l 781 544 z "},"I":{"ha":1457,"x_min":0,"x_max":1389,"o":"m 1389 528 q 1185 1018 1389 815 q 694 1222 982 1222 q 203 1018 407 1222 q 0 528 0 815 q 203 38 0 240 q 694 -167 407 -167 q 1185 38 982 -167 q 1389 528 1389 239 m 588 89 l 633 201 l 800 201 l 806 214 l 889 419 l 892 432 l 725 432 l 771 544 l 835 544 l 1283 544 l 1238 432 l 1071 432 l 979 201 l 1146 201 l 1100 89 l 651 89 l 588 89 z "},"J":{"ha":1457,"x_min":0,"x_max":1389,"o":"m 1389 528 q 1185 1018 1389 815 q 694 1222 982 1222 q 203 1018 407 1222 q 0 528 0 815 q 203 38 0 240 q 694 -167 407 -167 q 1185 38 982 -167 q 1389 528 1389 239 m 1032 360 l 1107 544 l 1293 544 l 1213 346 l 1185 274 q 1130 197 1169 238 q 1038 126 1090 157 q 944 95 988 101 q 858 89 901 89 q 778 99 818 89 q 707 138 738 110 q 670 201 678 165 q 675 268 663 236 l 679 276 l 686 296 l 874 296 l 865 272 q 878 246 863 256 q 913 236 894 236 q 956 246 932 236 q 996 271 979 256 l 1032 360 z "},"K":{"ha":1457,"x_min":0,"x_max":1389,"o":"m 1389 528 q 1185 1018 1389 815 q 694 1222 982 1222 q 203 1018 407 1222 q 0 528 0 815 q 203 38 0 240 q 694 -167 407 -167 q 1185 38 982 -167 q 1389 528 1389 239 m 781 544 l 968 544 l 908 396 l 1083 544 l 1288 544 l 1013 317 l 1104 89 l 900 89 l 847 247 l 785 89 l 597 89 l 781 544 z "},"L":{"ha":1457,"x_min":0,"x_max":1389,"o":"m 1389 528 q 1185 1018 1389 815 q 694 1222 982 1222 q 203 1018 407 1222 q 0 528 0 815 q 203 38 0 240 q 694 -167 407 -167 q 1185 38 982 -167 q 1389 528 1389 239 m 925 544 l 1121 544 l 983 201 l 1147 201 l 1101 89 l 801 89 q 769 102 785 89 q 758 131 754 115 l 925 544 z "},"M":{"ha":1457,"x_min":0,"x_max":1389,"o":"m 1389 528 q 1185 1018 1389 815 q 694 1222 982 1222 q 203 1018 407 1222 q 0 528 0 815 q 203 38 0 240 q 694 -167 407 -167 q 1185 38 982 -167 q 1389 528 1389 239 m 543 544 l 826 544 l 825 331 l 997 544 l 1276 543 l 1110 89 l 939 89 l 996 247 l 1051 394 l 882 149 q 818 94 864 121 q 771 89 788 89 q 736 89 754 89 q 669 114 683 89 q 664 143 667 125 q 658 186 661 161 l 660 394 l 604 247 l 547 89 l 374 89 l 543 544 z "},"N":{"ha":1457,"x_min":0,"x_max":1389,"o":"m 1389 528 q 1185 1018 1389 815 q 694 1222 982 1222 q 203 1018 407 1222 q 0 528 0 815 q 203 38 0 240 q 694 -167 407 -167 q 1185 38 982 -167 q 1389 528 1389 239 m 775 544 l 963 544 l 1036 396 l 1096 544 l 1282 544 l 1099 89 l 913 89 l 842 247 l 779 89 l 592 89 l 775 544 z "},"O":{"ha":1457,"x_min":0,"x_max":1389,"o":"m 1389 528 q 1185 1018 1389 815 q 694 1222 982 1222 q 203 1018 407 1222 q 0 528 0 815 q 203 38 0 240 q 694 -167 407 -167 q 1185 38 982 -167 q 1389 528 1389 239 m 611 317 q 681 427 638 383 q 786 499 724 471 q 904 535 849 526 q 1007 544 960 544 q 1107 535 1056 546 q 1194 499 1158 525 q 1242 428 1231 472 q 1225 317 1254 383 q 1156 210 1200 254 q 1049 138 1111 165 q 932 101 986 110 q 829 89 878 92 q 786 93 810 90 q 736 100 763 96 q 643 138 682 111 q 595 210 604 165 q 611 317 586 254 m 879 235 q 961 257 924 240 q 1022 322 999 274 q 1018 388 1038 368 q 958 408 999 407 q 874 388 907 407 q 818 319 840 368 q 815 282 811 297 q 827 257 818 267 q 850 242 836 247 q 879 235 864 236 z "},"P":{"ha":1457,"x_min":0,"x_max":1389,"o":"m 1389 528 q 1185 1018 1389 815 q 694 1222 982 1222 q 203 1018 407 1222 q 0 528 0 815 q 203 38 0 240 q 694 -167 407 -167 q 1185 38 982 -167 q 1389 528 1389 239 m 614 89 l 774 485 q 788 501 776 490 q 813 521 799 511 q 844 538 828 531 q 872 544 860 544 l 1126 544 q 1191 530 1168 544 q 1223 494 1214 515 q 1229 447 1232 472 q 1218 401 1226 422 q 1163 324 1199 354 q 1069 257 1128 293 q 996 233 1029 240 q 936 222 963 225 q 889 218 910 218 q 853 218 868 218 l 801 89 l 614 89 m 935 415 l 897 313 q 933 320 914 313 q 969 339 951 328 q 1001 363 988 350 q 1018 388 1014 376 q 1010 412 1026 406 q 971 418 993 418 l 939 418 l 935 415 z "},"Q":{"ha":1457,"x_min":0,"x_max":1389,"o":"m 1389 528 q 1185 1018 1389 815 q 694 1222 982 1222 q 203 1018 407 1222 q 0 528 0 815 q 203 38 0 240 q 694 -167 407 -167 q 1185 38 982 -167 q 1389 528 1389 239 m 606 317 q 675 427 632 383 q 781 499 718 471 q 899 535 843 526 q 1001 544 954 544 q 1101 535 1050 546 q 1189 499 1153 525 q 1237 428 1225 472 q 1219 317 1249 383 q 1149 210 1197 258 q 1082 156 1103 165 l 1124 89 l 824 89 q 767 94 790 92 q 731 100 744 97 q 638 138 676 111 q 590 210 599 165 q 606 317 581 254 m 863 235 l 878 235 l 914 322 l 1017 322 q 1013 388 1032 368 q 953 408 993 407 q 868 388 901 407 q 813 319 835 368 q 808 290 808 301 q 812 268 807 278 q 829 251 817 258 q 863 235 842 243 z "},"R":{"ha":1457,"x_min":0,"x_max":1389,"o":"m 1389 528 q 1185 1018 1389 815 q 694 1222 982 1222 q 203 1018 407 1222 q 0 528 0 815 q 203 38 0 240 q 694 -167 407 -167 q 1185 38 982 -167 q 1389 528 1389 239 m 614 89 l 774 485 q 788 501 776 490 q 813 521 799 511 q 844 538 828 531 q 872 544 860 544 l 1126 544 q 1191 530 1168 544 q 1223 494 1214 515 q 1229 447 1232 472 q 1218 401 1226 422 q 1163 324 1199 354 q 1069 257 1128 293 l 1111 89 l 913 89 l 899 89 q 892 122 894 107 q 888 149 890 138 q 878 192 885 172 q 853 218 872 213 l 801 89 l 614 89 m 932 415 l 897 313 q 933 320 914 313 q 969 339 951 328 q 1001 363 988 350 q 1018 388 1014 376 q 1010 412 1026 406 q 971 418 993 418 l 939 418 l 932 415 z "},"S":{"ha":1457,"x_min":0,"x_max":1389,"o":"m 1389 528 q 1185 1018 1389 815 q 694 1222 982 1222 q 203 1018 407 1222 q 0 528 0 815 q 203 38 0 240 q 694 -167 407 -167 q 1185 38 982 -167 q 1389 528 1389 239 m 769 226 q 805 223 789 226 q 836 215 821 219 q 867 208 851 211 q 901 204 882 204 q 941 208 924 204 q 965 229 958 213 q 958 249 969 240 q 928 265 947 257 q 889 284 910 274 q 852 310 868 294 q 831 349 836 326 q 840 406 826 372 q 948 512 869 476 q 1131 547 1026 547 q 1160 547 1136 547 q 1212 543 1185 546 q 1259 534 1239 540 q 1275 518 1279 528 l 1232 413 q 1172 422 1199 410 q 1111 436 1146 433 q 1067 431 1090 436 q 1035 408 1043 425 q 1060 386 1031 394 q 1090 376 1075 382 q 1122 361 1104 369 q 1154 342 1139 353 q 1178 317 1169 332 q 1187 283 1186 303 q 1178 239 1188 264 q 1079 130 1151 172 q 897 88 1007 88 l 821 88 q 768 96 788 92 q 740 106 749 100 q 729 117 731 111 q 731 129 728 122 l 769 226 z "},"T":{"ha":1457,"x_min":0,"x_max":1389,"o":"m 1389 528 q 1185 1018 1389 815 q 694 1222 982 1222 q 203 1018 407 1222 q 0 528 0 815 q 203 38 0 240 q 694 -167 407 -167 q 1185 38 982 -167 q 1389 528 1389 239 m 765 544 l 829 544 l 1278 544 l 1232 432 l 1065 432 l 929 89 l 750 89 l 883 419 l 886 432 l 719 432 l 765 544 z "},"U":{"ha":1457,"x_min":0,"x_max":1389,"o":"m 1389 528 q 1185 1018 1389 815 q 694 1222 982 1222 q 203 1018 407 1222 q 0 528 0 815 q 203 38 0 240 q 694 -167 407 -167 q 1185 38 982 -167 q 1389 528 1389 239 m 1015 344 l 1096 544 l 1282 544 l 1194 319 l 1172 258 q 1108 183 1144 219 q 1028 125 1072 147 q 931 93 972 97 q 847 89 890 89 q 767 99 807 89 q 696 138 726 110 q 659 201 667 165 q 664 268 651 236 l 668 276 l 775 544 l 963 544 l 926 457 l 917 432 l 892 371 l 854 272 q 867 247 851 256 q 900 235 883 238 q 944 247 921 238 q 988 275 968 256 l 1015 344 z "},"V":{"ha":1457,"x_min":0,"x_max":1389,"o":"m 1389 528 q 1185 38 1389 239 q 694 -167 982 -167 q 203 38 407 -167 q 0 528 0 240 q 203 1018 0 815 q 694 1222 407 1222 q 1185 1018 982 1222 q 1389 528 1389 815 m 815 89 q 856 92 832 88 q 904 104 881 96 q 947 124 928 113 q 974 149 965 135 l 1293 544 l 1103 544 q 959 344 1007 410 q 908 275 911 279 q 905 271 906 272 q 904 269 904 269 l 889 269 q 888 271 889 269 q 889 275 888 272 q 914 544 889 282 l 731 544 l 718 179 q 722 147 718 163 q 738 118 726 131 q 767 97 749 106 q 815 89 786 89 z "},"W":{"ha":1457,"x_min":0,"x_max":1389,"o":"m 1389 528 q 1185 1018 1389 815 q 694 1222 982 1222 q 203 1018 407 1222 q 0 528 0 815 q 203 38 0 240 q 694 -167 407 -167 q 1185 38 982 -167 q 1389 528 1389 239 m 522 89 q 453 117 472 89 q 435 176 435 144 l 446 544 l 608 544 l 590 269 l 597 268 q 599 270 597 268 q 603 275 600 272 q 782 544 606 282 l 933 544 q 921 344 924 411 q 918 275 918 278 q 917 269 917 274 l 917 268 l 925 271 l 1107 544 l 1278 544 l 1007 164 q 968 122 985 135 q 929 101 951 110 q 889 91 908 93 q 854 89 869 89 q 785 117 804 89 q 765 176 765 144 l 763 290 l 660 149 q 636 122 653 133 q 599 101 619 110 q 558 90 579 93 q 522 89 538 86 z "},"X":{"ha":1457,"x_min":0,"x_max":1389,"o":"m 1389 528 q 1185 1018 1389 815 q 694 1222 982 1222 q 203 1018 407 1222 q 0 528 0 815 q 203 38 0 240 q 694 -167 407 -167 q 1185 38 982 -167 q 1389 528 1389 239 m 946 406 l 1104 544 l 1300 544 l 1035 317 l 1122 89 l 926 89 l 882 238 l 717 89 l 521 89 l 786 317 l 697 544 l 894 544 l 946 406 z "},"Y":{"ha":1457,"x_min":0,"x_max":1389,"o":"m 1389 528 q 1185 1018 1389 815 q 694 1222 982 1222 q 203 1018 407 1222 q 0 528 0 815 q 203 38 0 240 q 694 -167 407 -167 q 1185 38 982 -167 q 1389 528 1389 239 m 922 406 l 1086 544 l 1289 544 l 954 263 l 883 89 l 706 89 l 776 263 l 664 544 l 868 544 l 922 406 z "},"Z":{"ha":1457,"x_min":0,"x_max":1389,"o":"m 1389 528 q 1185 1018 1389 815 q 694 1222 982 1222 q 203 1018 407 1222 q 0 528 0 815 q 203 38 0 240 q 694 -167 407 -167 q 1185 38 982 -167 q 1389 528 1389 239 m 688 163 q 734 228 701 197 q 808 289 767 260 q 895 346 850 318 q 979 401 940 374 l 800 401 l 858 544 l 1229 544 q 1260 535 1250 544 q 1275 512 1271 525 q 1278 485 1279 499 q 1272 461 1276 471 q 1228 401 1261 432 q 1152 341 1194 371 q 1065 285 1110 311 q 986 238 1021 258 l 981 222 l 1160 222 l 1106 89 l 704 89 q 682 99 688 89 q 677 121 676 108 q 682 146 678 133 q 688 163 686 158 z "},"[":{"ha":482,"x_min":-78,"x_max":463,"o":"m 81 506 l -74 128 q -74 116 -78 122 q -64 103 -71 110 q -48 93 -57 97 q -31 89 -39 89 l 275 89 l 321 203 l 154 203 l 249 431 l 415 431 l 463 544 l 157 544 q 118 529 136 538 q 81 506 100 521 z "},"\\":{"ha":671,"x_min":-14,"x_max":676,"o":"m 196 531 l 172 544 l -14 544 l 489 89 l 676 89 l 196 531 z "},"]":{"ha":482,"x_min":-78,"x_max":463,"o":"m 304 128 l 458 506 q 459 517 463 511 q 449 530 456 524 q 433 540 442 536 q 415 544 424 544 l 110 544 l 64 431 l 231 431 l 136 203 l -31 203 l -78 89 l 228 89 q 267 104 249 96 q 304 128 285 113 z "},"^":{"ha":629,"x_min":-11,"x_max":614,"o":"m 247 406 l 411 544 l 614 544 l 279 263 l 208 89 l 31 89 l 101 263 l -11 544 l 193 544 l 247 406 z "},"_":{"ha":332,"x_min":-125,"x_max":290,"o":"m -69 58 l 286 58 l 290 57 l 244 -39 l 242 -40 l -125 -40 l -69 58 z "},"`":{"ha":288,"x_min":24,"x_max":267,"o":"m 24 544 l 207 544 l 267 388 l 178 388 l 179 254 l 24 544 z "},"a":{"ha":601,"x_min":-78,"x_max":486,"o":"m 283 257 l 299 257 l 310 310 q 313 328 311 317 q 317 349 315 339 q 320 365 319 358 q 321 372 321 372 l 306 372 q 297 360 304 371 q 280 335 290 350 q 264 310 269 319 l 233 257 l 283 257 m 239 149 l 169 149 l 158 149 l 106 89 l -78 89 l 206 457 q 273 517 231 490 q 374 544 315 544 q 413 543 393 544 q 451 533 433 542 q 485 488 486 514 l 485 89 l 294 89 l 286 149 l 239 149 z "},"b":{"ha":568,"x_min":-78,"x_max":531,"o":"m 444 242 q 418 329 453 294 q 506 400 474 356 q 521 494 531 478 q 482 526 513 513 q 417 544 457 540 l 150 544 q 108 526 129 539 q 68 497 86 513 l -76 138 q -76 125 -78 133 q -64 106 -74 117 q -47 92 -54 96 q -36 89 -39 89 l 233 89 q 293 97 264 89 q 346 115 322 104 q 386 139 369 126 q 410 163 403 151 q 424 192 415 172 q 444 242 432 211 m 232 435 l 238 438 l 261 438 q 307 428 292 438 q 314 399 322 419 q 231 354 300 361 l 204 354 l 232 435 m 174 282 l 179 290 l 204 290 q 253 247 267 286 q 222 217 244 226 q 168 207 199 207 l 146 207 l 174 282 z "},"c":{"ha":496,"x_min":-56,"x_max":472,"o":"m -8 315 q 52 428 18 382 q 150 506 86 475 q 278 540 208 536 q 472 544 343 547 l 417 407 q 278 389 336 410 q 200 315 221 368 q 197 273 189 289 q 225 248 204 257 q 277 235 246 239 q 346 228 308 231 l 289 89 q 25 140 106 86 q -8 315 -56 194 z "},"d":{"ha":574,"x_min":-78,"x_max":526,"o":"m 500 315 q 324 139 451 196 q 259 115 293 125 q 185 99 225 106 q 81 90 147 92 q -78 89 15 88 l 106 544 l 210 544 q 362 533 296 544 q 467 495 428 522 q 517 424 507 468 q 500 315 526 381 m 214 397 l 156 233 q 237 257 199 239 q 292 315 275 275 q 292 382 313 367 q 222 401 271 399 l 214 397 z "},"e":{"ha":488,"x_min":-78,"x_max":463,"o":"m 81 506 l -74 128 q -74 116 -78 122 q -64 103 -71 110 q -48 93 -57 97 q -31 89 -39 89 l 275 89 l 321 203 l 154 203 l 174 253 l 325 253 l 379 381 l 228 381 l 249 431 l 415 431 l 463 544 l 157 544 q 118 529 136 538 q 81 506 100 521 z "},"f":{"ha":490,"x_min":-83,"x_max":461,"o":"m 83 506 l -69 128 l -83 89 l 108 89 l 156 203 l 175 253 l 326 253 l 379 381 l 229 381 l 250 431 l 414 431 l 461 544 l 158 544 q 120 529 138 538 q 83 506 103 521 z "},"g":{"ha":582,"x_min":-36,"x_max":557,"o":"m 269 235 l 300 315 l 467 315 l 376 88 l 274 88 q 124 99 189 88 q 21 137 60 110 q -27 208 -18 164 q -10 317 -36 251 q 163 493 39 438 q 226 517 192 507 q 299 533 260 526 q 400 542 335 540 q 557 543 465 544 l 507 415 q 328 399 425 413 q 247 375 285 393 q 193 317 210 357 q 193 250 174 264 q 261 231 214 233 l 269 235 z "},"h":{"ha":626,"x_min":-92,"x_max":599,"o":"m 92 544 l 279 544 l 219 396 l 353 396 l 413 544 l 599 544 l 415 89 l 229 89 l 292 247 l 158 247 l 96 89 l -92 89 l 92 544 z "},"i":{"ha":293,"x_min":-90,"x_max":271,"o":"m 93 544 l 271 544 l 88 89 l -90 89 l 93 544 z "},"j":{"ha":626,"x_min":-26,"x_max":604,"o":"m 338 344 l 418 544 l 604 544 l 517 319 l 494 258 q 431 183 467 219 q 350 125 394 147 q 253 93 294 97 q 169 89 213 89 q 89 99 129 89 q 18 138 49 110 q -19 201 -11 165 q -14 268 -26 236 l -6 297 l 178 297 l 176 272 q 190 247 174 256 q 222 235 206 238 q 267 247 243 238 q 310 275 290 256 l 338 344 z "},"k":{"ha":629,"x_min":-86,"x_max":604,"o":"m 97 544 l 285 544 l 225 396 l 400 544 l 604 544 l 329 317 l 421 89 l 217 89 l 164 247 l 101 89 l -86 89 l 97 544 z "},"l":{"ha":424,"x_min":-74,"x_max":319,"o":"m 97 544 l -69 131 q -58 102 -74 115 q -26 89 -43 89 l 274 89 l 319 201 l 156 201 l 293 544 l 97 544 z "},"m":{"ha":840,"x_min":-87,"x_max":815,"o":"m 82 544 l 365 544 l 364 331 l 536 544 l 815 543 l 649 89 l 478 89 l 535 247 l 590 394 l 421 149 q 357 94 403 124 q 331 90 343 92 q 310 89 319 89 l 275 89 q 208 114 222 89 q 203 143 206 125 q 197 186 200 161 l 199 394 l 143 247 l 86 89 l -87 89 l 82 544 z "},"n":{"ha":621,"x_min":-86,"x_max":604,"o":"m 97 544 l 285 544 l 358 396 l 418 544 l 604 544 l 421 89 l 235 89 l 164 247 l 101 89 l -86 89 l 97 544 z "},"o":{"ha":668,"x_min":-33,"x_max":635,"o":"m -8 318 q 61 428 18 385 q 167 500 104 472 q 285 537 229 528 q 388 546 340 546 q 488 537 436 547 q 575 500 539 526 q 623 429 611 474 q 606 318 635 385 q 429 139 558 196 q 313 102 367 111 q 210 89 258 93 q 163 94 182 92 q 117 101 143 97 q 24 139 63 113 q -24 211 -15 167 q -8 318 -33 256 m 260 235 q 342 257 304 240 q 403 322 379 274 q 399 388 418 368 q 339 408 379 407 q 254 388 288 407 q 199 319 221 368 q 194 282 192 297 q 207 257 197 267 q 231 242 217 247 q 260 235 244 236 z "},"p":{"ha":571,"x_min":-78,"x_max":540,"o":"m -78 89 l 110 89 l 161 218 q 194 216 171 215 q 256 219 218 217 q 378 257 331 228 q 472 324 436 293 q 526 401 507 354 q 538 447 535 422 q 531 494 540 472 q 499 530 522 515 q 435 544 476 544 l 181 544 q 152 538 168 544 q 122 521 136 531 q 96 501 107 511 q 82 485 85 490 l -78 89 m 243 415 l 247 418 l 279 418 q 318 412 301 418 q 326 388 335 406 q 309 363 322 376 q 278 339 296 350 q 241 320 260 328 q 206 313 222 313 l 243 415 z "},"q":{"ha":663,"x_min":-33,"x_max":635,"o":"m -8 318 q 61 428 18 385 q 167 500 104 472 q 285 537 229 528 q 388 546 340 546 q 488 537 436 547 q 575 500 539 526 q 623 429 611 474 q 606 318 635 385 q 535 211 583 260 q 468 157 489 167 l 510 89 l 210 89 q 153 96 176 93 q 117 101 131 99 q 24 139 63 113 q -24 211 -15 167 q -8 318 -33 256 m 246 235 l 264 235 l 300 322 l 403 322 q 399 388 418 368 q 339 408 379 407 q 254 388 288 407 q 199 319 221 368 q 198 269 186 286 q 246 235 210 251 z "},"r":{"ha":582,"x_min":-78,"x_max":540,"o":"m -78 89 l 110 89 l 161 218 q 187 192 181 213 q 196 149 193 172 q 201 122 199 138 q 207 89 203 107 l 221 89 l 419 89 l 378 257 q 472 324 436 293 q 526 401 507 354 q 538 447 535 422 q 531 494 540 472 q 499 530 522 515 q 435 544 476 544 l 181 544 q 152 538 168 544 q 122 521 136 531 q 96 501 107 511 q 82 485 85 490 l -78 89 m 240 413 l 247 418 l 279 418 q 318 412 301 418 q 326 388 335 406 q 309 363 322 376 q 278 339 296 350 q 241 320 260 328 q 206 313 222 313 l 240 413 z "},"s":{"ha":501,"x_min":-78,"x_max":474,"o":"m -36 226 q -1 223 -17 226 q 31 215 15 219 q 61 208 46 211 q 96 204 76 204 q 135 208 118 204 q 160 229 153 213 q 152 249 164 240 q 122 265 140 257 q 83 284 104 274 q 46 310 61 294 q 26 349 31 326 q 35 406 21 372 q 142 512 64 476 q 325 547 221 547 q 354 547 329 547 q 406 543 379 546 q 453 534 433 540 q 469 518 474 528 l 426 413 q 395 414 410 411 q 367 421 381 417 q 338 430 353 425 q 306 436 322 435 q 261 431 285 436 q 229 408 238 425 q 254 386 225 394 q 284 376 269 382 q 317 361 299 369 q 371 317 351 344 q 372 239 390 290 q 274 130 346 172 q 92 88 201 88 l 15 88 q -37 96 -18 92 q -66 106 -57 100 q -76 117 -75 111 q -75 129 -78 122 l -36 226 z "},"t":{"ha":593,"x_min":14,"x_max":572,"o":"m 60 544 l 14 432 l 181 432 l 178 419 l 44 89 l 224 89 l 360 432 l 526 432 l 572 544 l 124 544 l 60 544 z "},"u":{"ha":626,"x_min":-26,"x_max":604,"o":"m 338 344 l 418 544 l 604 544 l 517 319 l 494 258 q 431 183 467 219 q 350 125 394 147 q 253 93 294 97 q 169 89 213 89 q 89 99 129 89 q 18 138 49 110 q -19 201 -11 165 q -14 268 -26 236 l -10 276 l 97 544 l 285 544 l 249 457 l 239 432 l 214 371 l 176 272 q 190 247 174 256 q 222 235 206 238 q 267 247 243 238 q 310 275 290 256 l 338 344 z "},"v":{"ha":663,"x_min":56,"x_max":631,"o":"m 153 89 q 194 92 171 88 q 241 104 218 96 q 283 124 264 113 q 311 149 303 136 l 631 544 l 440 544 q 297 344 344 410 q 246 275 249 279 q 242 271 243 272 q 242 269 242 269 l 226 269 q 226 271 226 269 q 226 275 225 272 q 251 544 226 282 l 68 544 l 56 179 q 60 147 56 163 q 75 118 64 131 q 105 97 86 106 q 153 89 124 89 z "},"w":{"ha":926,"x_min":53,"x_max":896,"o":"m 140 89 q 72 117 90 89 q 53 176 53 144 l 64 544 l 226 544 l 208 269 l 215 268 q 217 270 215 268 q 221 275 218 272 q 400 544 224 282 l 551 544 q 539 344 542 410 q 536 275 536 278 q 535 269 535 274 l 535 268 l 543 271 l 725 544 l 896 544 l 625 164 q 586 122 603 135 q 547 101 569 110 q 507 91 526 93 q 472 89 488 89 q 403 117 422 89 q 383 176 383 144 l 381 290 l 278 149 q 254 122 271 133 q 217 101 238 110 q 176 90 197 93 q 140 89 156 86 z "},"x":{"ha":724,"x_min":-78,"x_max":701,"o":"m 347 406 l 506 544 l 701 544 l 436 317 l 524 89 l 328 89 l 283 238 l 118 89 l -78 89 l 188 317 l 99 544 l 296 544 l 347 406 z "},"y":{"ha":657,"x_min":6,"x_max":631,"o":"m 264 406 l 210 544 l 6 544 l 118 263 l 47 89 l 225 89 l 296 263 l 631 544 l 428 544 l 264 406 z "},"z":{"ha":535,"x_min":-78,"x_max":525,"o":"m -67 163 q -20 228 -53 197 q 54 289 13 260 q 141 346 96 318 q 225 401 186 374 l 46 401 l 104 544 l 475 544 q 506 535 496 544 q 521 512 517 525 q 524 485 525 499 q 518 461 522 471 q 474 401 507 432 q 398 341 440 371 q 311 285 356 311 q 232 238 267 258 l 226 222 l 406 222 l 351 89 l -50 89 q -72 99 -67 89 q -77 121 -78 108 q -72 146 -76 133 q -67 163 -68 158 z "},"|":{"ha":293,"x_min":-136,"x_max":300,"o":"m 110 624 l 300 624 l 53 18 l -136 18 l 110 624 z "},"…":{"ha":928,"x_min":-68,"x_max":814,"o":"m 814 253 l 749 89 l 571 89 l 631 253 l 814 253 m 175 253 l 110 89 l -68 89 l -8 253 l 175 253 m 492 253 l 426 89 l 249 89 l 308 253 l 492 253 z "},"‘":{"ha":304,"x_min":35,"x_max":278,"o":"m 278 544 l 94 544 l 35 388 l 124 388 l 122 254 l 278 544 z "},"’":{"ha":304,"x_min":35,"x_max":278,"o":"m 278 544 l 94 544 l 35 388 l 124 388 l 122 254 l 278 544 z "},"“":{"ha":549,"x_min":35,"x_max":525,"o":"m 525 544 l 342 544 l 282 388 l 371 388 l 369 254 l 525 544 m 278 544 l 94 544 l 35 388 l 124 388 l 122 254 l 278 544 z "},"”":{"ha":549,"x_min":35,"x_max":525,"o":"m 525 544 l 342 544 l 282 388 l 371 388 l 369 254 l 525 544 m 278 544 l 94 544 l 35 388 l 124 388 l 122 254 l 278 544 z "},"–":{"ha":344,"x_min":-25,"x_max":247,"o":"m 247 382 l 181 254 l -25 254 l 29 382 l 247 382 z "},"—":{"ha":344,"x_min":-25,"x_max":247,"o":"m 247 382 l 181 254 l -25 254 l 29 382 l 247 382 z "}}}
